<mxfile host="app.diagrams.net" modified="2024-04-09T16:57:39.740Z" agent="Mozilla/5.0 (Macintosh; Intel Mac OS X 10_15_7) AppleWebKit/537.36 (KHTML, like Gecko) Chrome/123.0.0.0 Safari/537.36" etag="C74LjSjLkg1LiE_I9AvF" version="24.2.2" type="github" pages="2">
  <diagram id="prtHgNgQTEPvFCAcTncT" name="系统架构">
    <mxGraphModel dx="1434" dy="748" grid="1" gridSize="10" guides="1" tooltips="1" connect="1" arrows="1" fold="1" page="1" pageScale="1" pageWidth="827" pageHeight="1169" background="none" math="0" shadow="0">
      <root>
        <mxCell id="0" />
        <mxCell id="1" parent="0" />
        <mxCell id="dNxyNK7c78bLwvsdeMH5-11" value="&lt;font style=&quot;font-size: 24px;&quot;&gt;教学管理系统&lt;/font&gt;" style="swimlane;html=1;startSize=40;horizontal=1;containerType=tree;glass=0;labelBackgroundColor=none;container=0;" parent="1" vertex="1">
          <mxGeometry x="40" y="80" width="710" height="300" as="geometry">
            <mxRectangle x="40" y="80" width="180" height="40" as="alternateBounds" />
          </mxGeometry>
        </mxCell>
        <mxCell id="o6DkX0FlHKFSQ7c7n1d0-18" value="&lt;span style=&quot;font-size: 20px;&quot;&gt;数据存储层&lt;/span&gt;" style="rounded=1;whiteSpace=wrap;html=1;labelBackgroundColor=none;container=0;" vertex="1" parent="dNxyNK7c78bLwvsdeMH5-11">
          <mxGeometry x="20" y="220" width="120" height="60" as="geometry" />
        </mxCell>
        <mxCell id="o6DkX0FlHKFSQ7c7n1d0-19" value="" style="rounded=1;whiteSpace=wrap;html=1;labelBackgroundColor=none;container=0;" vertex="1" parent="dNxyNK7c78bLwvsdeMH5-11">
          <mxGeometry x="180" y="220" width="510" height="60" as="geometry" />
        </mxCell>
        <mxCell id="o6DkX0FlHKFSQ7c7n1d0-20" value="Redis数据库&lt;div&gt;（缓存）&lt;/div&gt;" style="rounded=1;whiteSpace=wrap;html=1;labelBackgroundColor=none;container=0;" vertex="1" parent="dNxyNK7c78bLwvsdeMH5-11">
          <mxGeometry x="240" y="227.5" width="90" height="45" as="geometry" />
        </mxCell>
        <mxCell id="o6DkX0FlHKFSQ7c7n1d0-21" value="MySQL数据库&lt;div&gt;（持久化）&lt;/div&gt;" style="rounded=1;whiteSpace=wrap;html=1;labelBackgroundColor=none;container=0;" vertex="1" parent="dNxyNK7c78bLwvsdeMH5-11">
          <mxGeometry x="390" y="227.5" width="90" height="45" as="geometry" />
        </mxCell>
        <mxCell id="o6DkX0FlHKFSQ7c7n1d0-24" value="MinIO对象存储&lt;div&gt;（文件存储）&lt;/div&gt;" style="rounded=1;whiteSpace=wrap;html=1;labelBackgroundColor=none;container=0;" vertex="1" parent="dNxyNK7c78bLwvsdeMH5-11">
          <mxGeometry x="540" y="227.5" width="90" height="45" as="geometry" />
        </mxCell>
        <mxCell id="o6DkX0FlHKFSQ7c7n1d0-4" value="&lt;span style=&quot;font-size: 20px;&quot;&gt;服务应用层&lt;/span&gt;" style="rounded=1;whiteSpace=wrap;html=1;labelBackgroundColor=none;container=0;" vertex="1" parent="dNxyNK7c78bLwvsdeMH5-11">
          <mxGeometry x="20" y="140" width="120" height="60" as="geometry" />
        </mxCell>
        <mxCell id="o6DkX0FlHKFSQ7c7n1d0-5" value="" style="rounded=1;whiteSpace=wrap;html=1;labelBackgroundColor=none;container=0;" vertex="1" parent="dNxyNK7c78bLwvsdeMH5-11">
          <mxGeometry x="180" y="140" width="510" height="60" as="geometry" />
        </mxCell>
        <mxCell id="o6DkX0FlHKFSQ7c7n1d0-6" value="Gateway服务&lt;div&gt;（网关服务&lt;span style=&quot;background-color: initial;&quot;&gt;）&lt;/span&gt;&lt;/div&gt;" style="rounded=1;whiteSpace=wrap;html=1;labelBackgroundColor=none;container=0;" vertex="1" parent="dNxyNK7c78bLwvsdeMH5-11">
          <mxGeometry x="190" y="147.5" width="90" height="45" as="geometry" />
        </mxCell>
        <mxCell id="o6DkX0FlHKFSQ7c7n1d0-7" value="Auth服务&lt;div&gt;（授权服务）&lt;/div&gt;" style="rounded=1;whiteSpace=wrap;html=1;labelBackgroundColor=none;container=0;" vertex="1" parent="dNxyNK7c78bLwvsdeMH5-11">
          <mxGeometry x="290" y="147.5" width="90" height="45" as="geometry" />
        </mxCell>
        <mxCell id="o6DkX0FlHKFSQ7c7n1d0-8" value="File服务&lt;div&gt;（文件服务&lt;span style=&quot;background-color: initial;&quot;&gt;）&lt;/span&gt;&lt;/div&gt;" style="rounded=1;whiteSpace=wrap;html=1;labelBackgroundColor=none;container=0;" vertex="1" parent="dNxyNK7c78bLwvsdeMH5-11">
          <mxGeometry x="390" y="147.5" width="90" height="45" as="geometry" />
        </mxCell>
        <mxCell id="o6DkX0FlHKFSQ7c7n1d0-9" value="System服务&lt;div&gt;（系统服务）&lt;/div&gt;" style="rounded=1;whiteSpace=wrap;html=1;labelBackgroundColor=none;container=0;" vertex="1" parent="dNxyNK7c78bLwvsdeMH5-11">
          <mxGeometry x="490" y="147.5" width="90" height="45" as="geometry" />
        </mxCell>
        <mxCell id="o6DkX0FlHKFSQ7c7n1d0-10" value="Web服务&lt;div&gt;（web应用功能服务）&lt;/div&gt;" style="rounded=1;whiteSpace=wrap;html=1;labelBackgroundColor=none;container=0;" vertex="1" parent="dNxyNK7c78bLwvsdeMH5-11">
          <mxGeometry x="590" y="147.5" width="90" height="45" as="geometry" />
        </mxCell>
        <mxCell id="o6DkX0FlHKFSQ7c7n1d0-2" value="&lt;font style=&quot;font-size: 20px;&quot;&gt;视图层&lt;/font&gt;" style="rounded=1;whiteSpace=wrap;html=1;labelBackgroundColor=none;container=0;" vertex="1" parent="dNxyNK7c78bLwvsdeMH5-11">
          <mxGeometry x="20" y="60" width="120" height="60" as="geometry" />
        </mxCell>
        <mxCell id="o6DkX0FlHKFSQ7c7n1d0-3" value="&lt;font style=&quot;font-size: 20px;&quot;&gt;Web网页（ElementUI、Vue、Axios）&lt;/font&gt;" style="rounded=1;whiteSpace=wrap;html=1;labelBackgroundColor=none;container=0;" vertex="1" parent="dNxyNK7c78bLwvsdeMH5-11">
          <mxGeometry x="180" y="60" width="510" height="60" as="geometry" />
        </mxCell>
      </root>
    </mxGraphModel>
  </diagram>
  <diagram id="6jYRyWL8vVZ-c0eQqOlS" name="系统流程">
    <mxGraphModel dx="1912" dy="997" grid="1" gridSize="10" guides="1" tooltips="1" connect="1" arrows="1" fold="1" page="1" pageScale="1" pageWidth="827" pageHeight="1169" math="0" shadow="0">
      <root>
        <mxCell id="0" />
        <mxCell id="1" parent="0" />
        <mxCell id="N0tUkwhPcD_Nr_h9eAbR-17" style="edgeStyle=none;curved=1;rounded=0;orthogonalLoop=1;jettySize=auto;html=1;exitX=0.5;exitY=1;exitDx=0;exitDy=0;exitPerimeter=0;entryX=0.5;entryY=0;entryDx=0;entryDy=0;fontSize=12;startSize=8;endSize=8;" edge="1" parent="1" source="N0tUkwhPcD_Nr_h9eAbR-1" target="N0tUkwhPcD_Nr_h9eAbR-3">
          <mxGeometry relative="1" as="geometry" />
        </mxCell>
        <mxCell id="N0tUkwhPcD_Nr_h9eAbR-1" value="教师" style="strokeWidth=2;html=1;shape=mxgraph.flowchart.start_2;whiteSpace=wrap;" vertex="1" parent="1">
          <mxGeometry x="757" y="370" width="60" height="60" as="geometry" />
        </mxCell>
        <mxCell id="N0tUkwhPcD_Nr_h9eAbR-56" style="edgeStyle=none;curved=1;rounded=0;orthogonalLoop=1;jettySize=auto;html=1;exitX=0.5;exitY=1;exitDx=0;exitDy=0;entryX=0.5;entryY=0;entryDx=0;entryDy=0;fontSize=12;startSize=8;endSize=8;" edge="1" parent="1" source="N0tUkwhPcD_Nr_h9eAbR-3" target="N0tUkwhPcD_Nr_h9eAbR-49">
          <mxGeometry relative="1" as="geometry" />
        </mxCell>
        <mxCell id="N0tUkwhPcD_Nr_h9eAbR-3" value="登录系统" style="rounded=0;whiteSpace=wrap;html=1;" vertex="1" parent="1">
          <mxGeometry x="747" y="470" width="80" height="40" as="geometry" />
        </mxCell>
        <mxCell id="N0tUkwhPcD_Nr_h9eAbR-61" style="edgeStyle=none;curved=1;rounded=0;orthogonalLoop=1;jettySize=auto;html=1;exitX=0.5;exitY=0;exitDx=0;exitDy=0;exitPerimeter=0;entryX=0.5;entryY=1;entryDx=0;entryDy=0;fontSize=12;startSize=8;endSize=8;" edge="1" parent="1" source="N0tUkwhPcD_Nr_h9eAbR-4" target="N0tUkwhPcD_Nr_h9eAbR-11">
          <mxGeometry relative="1" as="geometry" />
        </mxCell>
        <mxCell id="N0tUkwhPcD_Nr_h9eAbR-4" value="学生&lt;span style=&quot;white-space: pre;&quot;&gt;&#x9;&lt;/span&gt;" style="strokeWidth=2;html=1;shape=mxgraph.flowchart.start_2;whiteSpace=wrap;" vertex="1" parent="1">
          <mxGeometry x="384" y="1090" width="60" height="60" as="geometry" />
        </mxCell>
        <mxCell id="N0tUkwhPcD_Nr_h9eAbR-16" style="edgeStyle=none;curved=1;rounded=0;orthogonalLoop=1;jettySize=auto;html=1;exitX=0.5;exitY=1;exitDx=0;exitDy=0;exitPerimeter=0;entryX=0.5;entryY=0;entryDx=0;entryDy=0;fontSize=12;startSize=8;endSize=8;" edge="1" parent="1" source="N0tUkwhPcD_Nr_h9eAbR-6" target="N0tUkwhPcD_Nr_h9eAbR-12">
          <mxGeometry relative="1" as="geometry" />
        </mxCell>
        <mxCell id="N0tUkwhPcD_Nr_h9eAbR-6" value="管理员" style="strokeWidth=2;html=1;shape=mxgraph.flowchart.start_2;whiteSpace=wrap;" vertex="1" parent="1">
          <mxGeometry x="10" y="370" width="60" height="60" as="geometry" />
        </mxCell>
        <mxCell id="N0tUkwhPcD_Nr_h9eAbR-15" style="edgeStyle=none;curved=1;rounded=0;orthogonalLoop=1;jettySize=auto;html=1;exitX=0.5;exitY=1;exitDx=0;exitDy=0;exitPerimeter=0;entryX=0.5;entryY=0;entryDx=0;entryDy=0;fontSize=12;startSize=8;endSize=8;" edge="1" parent="1" source="N0tUkwhPcD_Nr_h9eAbR-8" target="N0tUkwhPcD_Nr_h9eAbR-10">
          <mxGeometry relative="1" as="geometry" />
        </mxCell>
        <mxCell id="N0tUkwhPcD_Nr_h9eAbR-8" value="领导" style="strokeWidth=2;html=1;shape=mxgraph.flowchart.start_2;whiteSpace=wrap;" vertex="1" parent="1">
          <mxGeometry x="384" y="20" width="60" height="60" as="geometry" />
        </mxCell>
        <mxCell id="N0tUkwhPcD_Nr_h9eAbR-30" style="edgeStyle=orthogonalEdgeStyle;rounded=0;orthogonalLoop=1;jettySize=auto;html=1;exitX=1;exitY=0.5;exitDx=0;exitDy=0;entryX=0.5;entryY=0;entryDx=0;entryDy=0;fontSize=12;startSize=8;endSize=8;elbow=vertical;" edge="1" parent="1" source="N0tUkwhPcD_Nr_h9eAbR-10" target="N0tUkwhPcD_Nr_h9eAbR-26">
          <mxGeometry relative="1" as="geometry" />
        </mxCell>
        <mxCell id="N0tUkwhPcD_Nr_h9eAbR-69" style="edgeStyle=orthogonalEdgeStyle;rounded=0;orthogonalLoop=1;jettySize=auto;html=1;exitX=0;exitY=0.5;exitDx=0;exitDy=0;entryX=0;entryY=0.5;entryDx=0;entryDy=0;fontSize=12;startSize=8;endSize=8;" edge="1" parent="1" source="N0tUkwhPcD_Nr_h9eAbR-10" target="N0tUkwhPcD_Nr_h9eAbR-67">
          <mxGeometry relative="1" as="geometry">
            <Array as="points">
              <mxPoint x="80" y="120" />
              <mxPoint x="80" y="340" />
            </Array>
          </mxGeometry>
        </mxCell>
        <mxCell id="N0tUkwhPcD_Nr_h9eAbR-10" value="登录系统" style="rounded=0;whiteSpace=wrap;html=1;" vertex="1" parent="1">
          <mxGeometry x="374" y="100" width="80" height="40" as="geometry" />
        </mxCell>
        <mxCell id="N0tUkwhPcD_Nr_h9eAbR-41" style="edgeStyle=orthogonalEdgeStyle;rounded=0;orthogonalLoop=1;jettySize=auto;html=1;exitX=0;exitY=0.5;exitDx=0;exitDy=0;entryX=1;entryY=0.5;entryDx=0;entryDy=0;fontSize=12;startSize=8;endSize=8;" edge="1" parent="1" source="N0tUkwhPcD_Nr_h9eAbR-3" target="N0tUkwhPcD_Nr_h9eAbR-34">
          <mxGeometry relative="1" as="geometry">
            <Array as="points">
              <mxPoint x="740" y="490" />
              <mxPoint x="740" y="260" />
            </Array>
          </mxGeometry>
        </mxCell>
        <mxCell id="N0tUkwhPcD_Nr_h9eAbR-54" style="edgeStyle=none;curved=1;rounded=0;orthogonalLoop=1;jettySize=auto;html=1;exitX=1;exitY=0.5;exitDx=0;exitDy=0;entryX=0;entryY=0.5;entryDx=0;entryDy=0;fontSize=12;startSize=8;endSize=8;" edge="1" parent="1" source="N0tUkwhPcD_Nr_h9eAbR-11" target="N0tUkwhPcD_Nr_h9eAbR-50">
          <mxGeometry relative="1" as="geometry" />
        </mxCell>
        <mxCell id="N0tUkwhPcD_Nr_h9eAbR-11" value="登录系统" style="rounded=0;whiteSpace=wrap;html=1;" vertex="1" parent="1">
          <mxGeometry x="374" y="1020" width="80" height="40" as="geometry" />
        </mxCell>
        <mxCell id="N0tUkwhPcD_Nr_h9eAbR-21" style="edgeStyle=orthogonalEdgeStyle;rounded=0;orthogonalLoop=1;jettySize=auto;html=1;exitX=1;exitY=0.5;exitDx=0;exitDy=0;entryX=0;entryY=0.5;entryDx=0;entryDy=0;fontSize=12;startSize=8;endSize=8;" edge="1" parent="1" source="N0tUkwhPcD_Nr_h9eAbR-12" target="N0tUkwhPcD_Nr_h9eAbR-20">
          <mxGeometry relative="1" as="geometry" />
        </mxCell>
        <mxCell id="N0tUkwhPcD_Nr_h9eAbR-35" style="edgeStyle=orthogonalEdgeStyle;rounded=0;orthogonalLoop=1;jettySize=auto;html=1;exitX=1;exitY=0.5;exitDx=0;exitDy=0;fontSize=12;startSize=8;endSize=8;entryX=0;entryY=0.5;entryDx=0;entryDy=0;" edge="1" parent="1" source="N0tUkwhPcD_Nr_h9eAbR-12" target="N0tUkwhPcD_Nr_h9eAbR-33">
          <mxGeometry relative="1" as="geometry" />
        </mxCell>
        <mxCell id="N0tUkwhPcD_Nr_h9eAbR-12" value="登录系统" style="rounded=0;whiteSpace=wrap;html=1;" vertex="1" parent="1">
          <mxGeometry y="460" width="80" height="40" as="geometry" />
        </mxCell>
        <mxCell id="N0tUkwhPcD_Nr_h9eAbR-28" style="edgeStyle=none;curved=1;rounded=0;orthogonalLoop=1;jettySize=auto;html=1;exitX=1;exitY=0.5;exitDx=0;exitDy=0;entryX=0;entryY=0.5;entryDx=0;entryDy=0;fontSize=12;startSize=8;endSize=8;" edge="1" parent="1" source="N0tUkwhPcD_Nr_h9eAbR-20" target="N0tUkwhPcD_Nr_h9eAbR-23">
          <mxGeometry relative="1" as="geometry" />
        </mxCell>
        <mxCell id="N0tUkwhPcD_Nr_h9eAbR-20" value="领导信息管理" style="rounded=0;whiteSpace=wrap;html=1;" vertex="1" parent="1">
          <mxGeometry x="160" y="160" width="80" height="40" as="geometry" />
        </mxCell>
        <mxCell id="N0tUkwhPcD_Nr_h9eAbR-23" value="添加领导信息" style="rounded=0;whiteSpace=wrap;html=1;" vertex="1" parent="1">
          <mxGeometry x="280" y="160" width="80" height="40" as="geometry" />
        </mxCell>
        <mxCell id="N0tUkwhPcD_Nr_h9eAbR-24" value="领导个人信息" style="strokeWidth=2;html=1;shape=mxgraph.flowchart.document2;whiteSpace=wrap;size=0.25;" vertex="1" parent="1">
          <mxGeometry x="400" y="160" width="80" height="40" as="geometry" />
        </mxCell>
        <mxCell id="N0tUkwhPcD_Nr_h9eAbR-31" style="edgeStyle=none;curved=1;rounded=0;orthogonalLoop=1;jettySize=auto;html=1;exitX=0;exitY=0.5;exitDx=0;exitDy=0;entryX=1;entryY=0.5;entryDx=0;entryDy=0;fontSize=12;startSize=8;endSize=8;" edge="1" parent="1" source="N0tUkwhPcD_Nr_h9eAbR-26" target="N0tUkwhPcD_Nr_h9eAbR-29">
          <mxGeometry relative="1" as="geometry" />
        </mxCell>
        <mxCell id="N0tUkwhPcD_Nr_h9eAbR-26" value="领导信息管理" style="rounded=0;whiteSpace=wrap;html=1;" vertex="1" parent="1">
          <mxGeometry x="640" y="160" width="80" height="40" as="geometry" />
        </mxCell>
        <mxCell id="N0tUkwhPcD_Nr_h9eAbR-27" value="" style="endArrow=classic;startArrow=classic;html=1;rounded=0;fontSize=12;startSize=8;endSize=8;curved=1;entryX=0;entryY=0.5;entryDx=0;entryDy=0;entryPerimeter=0;exitX=1;exitY=0.5;exitDx=0;exitDy=0;" edge="1" parent="1" source="N0tUkwhPcD_Nr_h9eAbR-23" target="N0tUkwhPcD_Nr_h9eAbR-24">
          <mxGeometry width="50" height="50" relative="1" as="geometry">
            <mxPoint x="350" y="180" as="sourcePoint" />
            <mxPoint x="400" y="130" as="targetPoint" />
          </mxGeometry>
        </mxCell>
        <mxCell id="N0tUkwhPcD_Nr_h9eAbR-29" value="查看修改个人信息" style="rounded=0;whiteSpace=wrap;html=1;" vertex="1" parent="1">
          <mxGeometry x="520" y="160" width="80" height="40" as="geometry" />
        </mxCell>
        <mxCell id="N0tUkwhPcD_Nr_h9eAbR-32" style="edgeStyle=none;curved=1;rounded=0;orthogonalLoop=1;jettySize=auto;html=1;exitX=0;exitY=0.5;exitDx=0;exitDy=0;entryX=1;entryY=0.5;entryDx=0;entryDy=0;entryPerimeter=0;fontSize=12;startSize=8;endSize=8;" edge="1" parent="1" source="N0tUkwhPcD_Nr_h9eAbR-29" target="N0tUkwhPcD_Nr_h9eAbR-24">
          <mxGeometry relative="1" as="geometry" />
        </mxCell>
        <mxCell id="N0tUkwhPcD_Nr_h9eAbR-37" style="edgeStyle=none;curved=1;rounded=0;orthogonalLoop=1;jettySize=auto;html=1;exitX=1;exitY=0.5;exitDx=0;exitDy=0;entryX=0;entryY=0.5;entryDx=0;entryDy=0;fontSize=12;startSize=8;endSize=8;" edge="1" parent="1" source="N0tUkwhPcD_Nr_h9eAbR-33" target="N0tUkwhPcD_Nr_h9eAbR-36">
          <mxGeometry relative="1" as="geometry" />
        </mxCell>
        <mxCell id="N0tUkwhPcD_Nr_h9eAbR-33" value="教师信息管理" style="rounded=0;whiteSpace=wrap;html=1;" vertex="1" parent="1">
          <mxGeometry x="160" y="240" width="80" height="40" as="geometry" />
        </mxCell>
        <mxCell id="N0tUkwhPcD_Nr_h9eAbR-43" style="edgeStyle=none;curved=1;rounded=0;orthogonalLoop=1;jettySize=auto;html=1;exitX=0;exitY=0.5;exitDx=0;exitDy=0;entryX=1;entryY=0.5;entryDx=0;entryDy=0;fontSize=12;startSize=8;endSize=8;" edge="1" parent="1" source="N0tUkwhPcD_Nr_h9eAbR-34" target="N0tUkwhPcD_Nr_h9eAbR-42">
          <mxGeometry relative="1" as="geometry" />
        </mxCell>
        <mxCell id="N0tUkwhPcD_Nr_h9eAbR-34" value="教师信息管理" style="rounded=0;whiteSpace=wrap;html=1;" vertex="1" parent="1">
          <mxGeometry x="640" y="240" width="80" height="40" as="geometry" />
        </mxCell>
        <mxCell id="N0tUkwhPcD_Nr_h9eAbR-36" value="添加教师信息" style="rounded=0;whiteSpace=wrap;html=1;" vertex="1" parent="1">
          <mxGeometry x="280" y="240" width="80" height="40" as="geometry" />
        </mxCell>
        <mxCell id="N0tUkwhPcD_Nr_h9eAbR-39" value="教师个人信息" style="strokeWidth=2;html=1;shape=mxgraph.flowchart.document2;whiteSpace=wrap;size=0.25;" vertex="1" parent="1">
          <mxGeometry x="400" y="240" width="80" height="40" as="geometry" />
        </mxCell>
        <mxCell id="N0tUkwhPcD_Nr_h9eAbR-40" value="" style="endArrow=classic;startArrow=classic;html=1;rounded=0;fontSize=12;startSize=8;endSize=8;curved=1;entryX=0;entryY=0.5;entryDx=0;entryDy=0;entryPerimeter=0;exitX=1;exitY=0.5;exitDx=0;exitDy=0;" edge="1" parent="1" source="N0tUkwhPcD_Nr_h9eAbR-36" target="N0tUkwhPcD_Nr_h9eAbR-39">
          <mxGeometry width="50" height="50" relative="1" as="geometry">
            <mxPoint x="350" y="270" as="sourcePoint" />
            <mxPoint x="410" y="220" as="targetPoint" />
          </mxGeometry>
        </mxCell>
        <mxCell id="N0tUkwhPcD_Nr_h9eAbR-42" value="查看修改个人信息" style="rounded=0;whiteSpace=wrap;html=1;" vertex="1" parent="1">
          <mxGeometry x="520" y="240" width="80" height="40" as="geometry" />
        </mxCell>
        <mxCell id="N0tUkwhPcD_Nr_h9eAbR-44" style="edgeStyle=none;curved=1;rounded=0;orthogonalLoop=1;jettySize=auto;html=1;exitX=0;exitY=0.5;exitDx=0;exitDy=0;entryX=1;entryY=0.5;entryDx=0;entryDy=0;entryPerimeter=0;fontSize=12;startSize=8;endSize=8;" edge="1" parent="1" source="N0tUkwhPcD_Nr_h9eAbR-42" target="N0tUkwhPcD_Nr_h9eAbR-39">
          <mxGeometry relative="1" as="geometry" />
        </mxCell>
        <mxCell id="N0tUkwhPcD_Nr_h9eAbR-57" style="edgeStyle=none;curved=1;rounded=0;orthogonalLoop=1;jettySize=auto;html=1;exitX=0.5;exitY=1;exitDx=0;exitDy=0;fontSize=12;startSize=8;endSize=8;" edge="1" parent="1" source="N0tUkwhPcD_Nr_h9eAbR-49" target="N0tUkwhPcD_Nr_h9eAbR-51">
          <mxGeometry relative="1" as="geometry" />
        </mxCell>
        <mxCell id="N0tUkwhPcD_Nr_h9eAbR-49" value="学生信息管理" style="rounded=0;whiteSpace=wrap;html=1;" vertex="1" parent="1">
          <mxGeometry x="747" y="560" width="80" height="40" as="geometry" />
        </mxCell>
        <mxCell id="N0tUkwhPcD_Nr_h9eAbR-55" style="edgeStyle=none;curved=1;rounded=0;orthogonalLoop=1;jettySize=auto;html=1;exitX=1;exitY=0.5;exitDx=0;exitDy=0;entryX=0;entryY=0.5;entryDx=0;entryDy=0;fontSize=12;startSize=8;endSize=8;" edge="1" parent="1" source="N0tUkwhPcD_Nr_h9eAbR-50" target="N0tUkwhPcD_Nr_h9eAbR-53">
          <mxGeometry relative="1" as="geometry" />
        </mxCell>
        <mxCell id="N0tUkwhPcD_Nr_h9eAbR-50" value="学生信息管理" style="rounded=0;whiteSpace=wrap;html=1;" vertex="1" parent="1">
          <mxGeometry x="520" y="1020" width="80" height="40" as="geometry" />
        </mxCell>
        <mxCell id="N0tUkwhPcD_Nr_h9eAbR-51" value="添加学生信息" style="rounded=0;whiteSpace=wrap;html=1;" vertex="1" parent="1">
          <mxGeometry x="747" y="640" width="80" height="40" as="geometry" />
        </mxCell>
        <mxCell id="N0tUkwhPcD_Nr_h9eAbR-52" value="学生个人信息" style="strokeWidth=2;html=1;shape=mxgraph.flowchart.document2;whiteSpace=wrap;size=0.25;" vertex="1" parent="1">
          <mxGeometry x="747" y="840" width="80" height="40" as="geometry" />
        </mxCell>
        <mxCell id="N0tUkwhPcD_Nr_h9eAbR-53" value="查看修改个人信息" style="rounded=0;whiteSpace=wrap;html=1;" vertex="1" parent="1">
          <mxGeometry x="640" y="1020" width="80" height="40" as="geometry" />
        </mxCell>
        <mxCell id="N0tUkwhPcD_Nr_h9eAbR-59" value="" style="endArrow=classic;startArrow=classic;html=1;rounded=0;fontSize=12;startSize=8;endSize=8;curved=1;entryX=0.5;entryY=0;entryDx=0;entryDy=0;entryPerimeter=0;exitX=0.5;exitY=1;exitDx=0;exitDy=0;" edge="1" parent="1" source="N0tUkwhPcD_Nr_h9eAbR-51" target="N0tUkwhPcD_Nr_h9eAbR-52">
          <mxGeometry width="50" height="50" relative="1" as="geometry">
            <mxPoint x="740" y="730" as="sourcePoint" />
            <mxPoint x="790" y="680" as="targetPoint" />
          </mxGeometry>
        </mxCell>
        <mxCell id="N0tUkwhPcD_Nr_h9eAbR-60" value="" style="endArrow=classic;startArrow=classic;html=1;rounded=0;fontSize=12;startSize=8;endSize=8;entryX=1;entryY=0.5;entryDx=0;entryDy=0;exitX=0;exitY=0.5;exitDx=0;exitDy=0;exitPerimeter=0;edgeStyle=orthogonalEdgeStyle;" edge="1" parent="1" source="N0tUkwhPcD_Nr_h9eAbR-52" target="N0tUkwhPcD_Nr_h9eAbR-53">
          <mxGeometry width="50" height="50" relative="1" as="geometry">
            <mxPoint x="718.67" y="880" as="sourcePoint" />
            <mxPoint x="718.67" y="1040" as="targetPoint" />
          </mxGeometry>
        </mxCell>
        <mxCell id="N0tUkwhPcD_Nr_h9eAbR-62" value="考勤管理" style="rounded=0;whiteSpace=wrap;html=1;" vertex="1" parent="1">
          <mxGeometry x="640" y="320" width="80" height="40" as="geometry" />
        </mxCell>
        <mxCell id="N0tUkwhPcD_Nr_h9eAbR-66" value="考勤信息" style="strokeWidth=2;html=1;shape=mxgraph.flowchart.document2;whiteSpace=wrap;size=0.25;" vertex="1" parent="1">
          <mxGeometry x="400" y="320" width="80" height="40" as="geometry" />
        </mxCell>
        <mxCell id="N0tUkwhPcD_Nr_h9eAbR-67" value="考勤管理" style="rounded=0;whiteSpace=wrap;html=1;" vertex="1" parent="1">
          <mxGeometry x="160" y="320" width="80" height="40" as="geometry" />
        </mxCell>
        <mxCell id="N0tUkwhPcD_Nr_h9eAbR-68" value="添加教师考勤信息" style="rounded=0;whiteSpace=wrap;html=1;" vertex="1" parent="1">
          <mxGeometry x="280" y="320" width="80" height="40" as="geometry" />
        </mxCell>
      </root>
    </mxGraphModel>
  </diagram>
</mxfile>
